HIERARCHY
ROOT mixamorig:Hips
{
	OFFSET -0.000008 104.274872 1.554316
	CHANNELS 6 Xposition Yposition Zposition Xrotation Yrotation Zrotation
	JOINT mixamorig:Spine
	{
		OFFSET -0.000005 10.181595 0.131519
		CHANNELS 6 Xposition Yposition Zposition Xrotation Yrotation Zrotation
		JOINT mixamorig:Spine1
		{
			OFFSET -0.000000 9.893959 -1.470707
			CHANNELS 6 Xposition Yposition Zposition Xrotation Yrotation Zrotation
			JOINT mixamorig:Spine2
			{
				OFFSET -0.000000 9.220757 -1.370641
				CHANNELS 6 Xposition Yposition Zposition Xrotation Yrotation Zrotation
				JOINT mixamorig:Neck
				{
					OFFSET 0.000001 16.740417 -2.049036
					CHANNELS 6 Xposition Yposition Zposition Xrotation Yrotation Zrotation
					JOINT mixamorig:Head
					{
						OFFSET 0.000000 9.617874 1.685006
						CHANNELS 6 Xposition Yposition Zposition Xrotation Yrotation Zrotation
						JOINT mixamorig:HeadTop_End
						{
							OFFSET 0.000002 22.037354 7.501101
							CHANNELS 6 Xposition Yposition Zposition Xrotation Yrotation Zrotation
							End Site
							{
								OFFSET 0.000168 2310.654297 -282.823242
							}
						}
					}
				}
				JOINT mixamorig:RightShoulder
				{
					OFFSET -4.569970 11.014908 -2.160885
					CHANNELS 6 Xposition Yposition Zposition Xrotation Yrotation Zrotation
					JOINT mixamorig:RightArm
					{
						OFFSET -10.592851 -0.524811 -2.232101
						CHANNELS 6 Xposition Yposition Zposition Xrotation Yrotation Zrotation
						JOINT mixamorig:RightForeArm
						{
							OFFSET -27.841511 0.000031 -0.000004
							CHANNELS 6 Xposition Yposition Zposition Xrotation Yrotation Zrotation
							JOINT mixamorig:RightHand
							{
								OFFSET -28.328831 -0.000015 0.000015
								CHANNELS 6 Xposition Yposition Zposition Xrotation Yrotation Zrotation
								JOINT mixamorig:RightHandThumb1
								{
									OFFSET -2.464806 -1.573990 2.681852
									CHANNELS 6 Xposition Yposition Zposition Xrotation Yrotation Zrotation
									JOINT mixamorig:RightHandThumb2
									{
										OFFSET -3.215179 -1.872803 1.924282
										CHANNELS 6 Xposition Yposition Zposition Xrotation Yrotation Zrotation
										JOINT mixamorig:RightHandThumb3
										{
											OFFSET -2.654831 -1.527969 1.512609
											CHANNELS 6 Xposition Yposition Zposition Xrotation Yrotation Zrotation
											JOINT mixamorig:RightHandThumb4
											{
												OFFSET -2.018814 -1.152008 1.108052
												CHANNELS 6 Xposition Yposition Zposition Xrotation Yrotation Zrotation
												End Site
												{
													OFFSET -188.809540 -114.533607 132.431396
												}
											}
										}
									}
								}
								JOINT mixamorig:RightHandIndex1
								{
									OFFSET -9.108284 -0.517868 2.259835
									CHANNELS 6 Xposition Yposition Zposition Xrotation Yrotation Zrotation
									JOINT mixamorig:RightHandIndex2
									{
										OFFSET -3.699989 0.000000 0.001215
										CHANNELS 6 Xposition Yposition Zposition Xrotation Yrotation Zrotation
										JOINT mixamorig:RightHandIndex3
										{
											OFFSET -2.850006 0.000031 -0.000522
											CHANNELS 6 Xposition Yposition Zposition Xrotation Yrotation Zrotation
											JOINT mixamorig:RightHandIndex4
											{
												OFFSET -2.772186 -0.000015 -0.000020
												CHANNELS 6 Xposition Yposition Zposition Xrotation Yrotation Zrotation
												End Site
												{
													OFFSET -277.218445 0.000000 -0.050231
												}
											}
										}
									}
								}
								JOINT mixamorig:RightHandMiddle1
								{
									OFFSET -9.532516 -0.000031 -0.000023
									CHANNELS 6 Xposition Yposition Zposition Xrotation Yrotation Zrotation
									JOINT mixamorig:RightHandMiddle2
									{
										OFFSET -3.700005 -0.000015 0.003713
										CHANNELS 6 Xposition Yposition Zposition Xrotation Yrotation Zrotation
										JOINT mixamorig:RightHandMiddle3
										{
											OFFSET -2.949974 0.000015 -0.002054
											CHANNELS 6 Xposition Yposition Zposition Xrotation Yrotation Zrotation
											JOINT mixamorig:RightHandMiddle4
											{
												OFFSET -2.946640 0.000000 -0.000156
												CHANNELS 6 Xposition Yposition Zposition Xrotation Yrotation Zrotation
												End Site
												{
													OFFSET -294.664337 0.000000 -0.113670
												}
											}
										}
									}
								}
								JOINT mixamorig:RightHandRing1
								{
									OFFSET -9.103600 -0.043076 -1.865134
									CHANNELS 6 Xposition Yposition Zposition Xrotation Yrotation Zrotation
									JOINT mixamorig:RightHandRing2
									{
										OFFSET -3.379288 0.000000 -0.001055
										CHANNELS 6 Xposition Yposition Zposition Xrotation Yrotation Zrotation
										JOINT mixamorig:RightHandRing3
										{
											OFFSET -2.889687 -0.000015 0.000379
											CHANNELS 6 Xposition Yposition Zposition Xrotation Yrotation Zrotation
											JOINT mixamorig:RightHandRing4
											{
												OFFSET -2.638809 -0.000015 0.000941
												CHANNELS 6 Xposition Yposition Zposition Xrotation Yrotation Zrotation
												End Site
												{
													OFFSET -263.880371 0.000000 0.516020
												}
											}
										}
									}
								}
								JOINT mixamorig:RightHandPinky1
								{
									OFFSET -8.076683 -0.486710 -3.806280
									CHANNELS 6 Xposition Yposition Zposition Xrotation Yrotation Zrotation
									JOINT mixamorig:RightHandPinky2
									{
										OFFSET -3.600014 -0.000015 -0.003747
										CHANNELS 6 Xposition Yposition Zposition Xrotation Yrotation Zrotation
										JOINT mixamorig:RightHandPinky3
										{
											OFFSET -2.099983 0.000000 -0.005739
											CHANNELS 6 Xposition Yposition Zposition Xrotation Yrotation Zrotation
											JOINT mixamorig:RightHandPinky4
											{
												OFFSET -2.115768 -0.000031 -0.003680
												CHANNELS 6 Xposition Yposition Zposition Xrotation Yrotation Zrotation
												End Site
												{
													OFFSET -211.577087 0.000000 -0.350686
												}
											}
										}
									}
								}
							}
						}
					}
				}
				JOINT mixamorig:LeftShoulder
				{
					OFFSET 4.570447 11.014725 -2.160855
					CHANNELS 6 Xposition Yposition Zposition Xrotation Yrotation Zrotation
					JOINT mixamorig:LeftArm
					{
						OFFSET 10.592371 -0.524597 -2.232119
						CHANNELS 6 Xposition Yposition Zposition Xrotation Yrotation Zrotation
						JOINT mixamorig:LeftForeArm
						{
							OFFSET 27.841532 -0.000031 0.000026
							CHANNELS 6 Xposition Yposition Zposition Xrotation Yrotation Zrotation
							JOINT mixamorig:LeftHand
							{
								OFFSET 28.328846 -0.000061 0.000022
								CHANNELS 6 Xposition Yposition Zposition Xrotation Yrotation Zrotation
								JOINT mixamorig:LeftHandThumb1
								{
									OFFSET 2.466141 -1.576172 2.681732
									CHANNELS 6 Xposition Yposition Zposition Xrotation Yrotation Zrotation
									JOINT mixamorig:LeftHandThumb2
									{
										OFFSET 3.217812 -1.872070 1.916482
										CHANNELS 6 Xposition Yposition Zposition Xrotation Yrotation Zrotation
										JOINT mixamorig:LeftHandThumb3
										{
											OFFSET 2.656029 -1.528778 1.514513
											CHANNELS 6 Xposition Yposition Zposition Xrotation Yrotation Zrotation
											JOINT mixamorig:LeftHandThumb4
											{
												OFFSET 2.020889 -1.154053 1.115139
												CHANNELS 6 Xposition Yposition Zposition Xrotation Yrotation Zrotation
												End Site
												{
													OFFSET 190.885437 -115.081749 130.048782
												}
											}
										}
									}
								}
								JOINT mixamorig:LeftHandIndex1
								{
									OFFSET 9.109314 -0.518021 2.259871
									CHANNELS 6 Xposition Yposition Zposition Xrotation Yrotation Zrotation
									JOINT mixamorig:LeftHandIndex2
									{
										OFFSET 3.699989 0.000000 -0.000322
										CHANNELS 6 Xposition Yposition Zposition Xrotation Yrotation Zrotation
										JOINT mixamorig:LeftHandIndex3
										{
											OFFSET 2.850006 0.000000 0.000352
											CHANNELS 6 Xposition Yposition Zposition Xrotation Yrotation Zrotation
											JOINT mixamorig:LeftHandIndex4
											{
												OFFSET 2.774864 -0.000031 -0.000027
												CHANNELS 6 Xposition Yposition Zposition Xrotation Yrotation Zrotation
												End Site
												{
													OFFSET 277.486267 0.000000 -0.009857
												}
											}
										}
									}
								}
								JOINT mixamorig:LeftHandMiddle1
								{
									OFFSET 9.533394 0.000061 0.000044
									CHANNELS 6 Xposition Yposition Zposition Xrotation Yrotation Zrotation
									JOINT mixamorig:LeftHandMiddle2
									{
										OFFSET 3.699989 -0.000015 -0.000231
										CHANNELS 6 Xposition Yposition Zposition Xrotation Yrotation Zrotation
										JOINT mixamorig:LeftHandMiddle3
										{
											OFFSET 2.949997 -0.000015 -0.000059
											CHANNELS 6 Xposition Yposition Zposition Xrotation Yrotation Zrotation
											JOINT mixamorig:LeftHandMiddle4
											{
												OFFSET 2.952896 0.000031 0.000063
												CHANNELS 6 Xposition Yposition Zposition Xrotation Yrotation Zrotation
												End Site
												{
													OFFSET 295.289337 0.000000 0.022810
												}
											}
										}
									}
								}
								JOINT mixamorig:LeftHandRing1
								{
									OFFSET 9.104523 -0.042999 -1.865074
									CHANNELS 6 Xposition Yposition Zposition Xrotation Yrotation Zrotation
									JOINT mixamorig:LeftHandRing2
									{
										OFFSET 3.150009 -0.000031 0.000043
										CHANNELS 6 Xposition Yposition Zposition Xrotation Yrotation Zrotation
										JOINT mixamorig:LeftHandRing3
										{
											OFFSET 2.949982 -0.000015 0.000040
											CHANNELS 6 Xposition Yposition Zposition Xrotation Yrotation Zrotation
											JOINT mixamorig:LeftHandRing4
											{
												OFFSET 2.644348 0.000000 0.000057
												CHANNELS 6 Xposition Yposition Zposition Xrotation Yrotation Zrotation
												End Site
												{
													OFFSET 264.434631 0.000000 0.012105
												}
											}
										}
									}
								}
								JOINT mixamorig:LeftHandPinky1
								{
									OFFSET 8.077789 -0.486847 -3.806259
									CHANNELS 6 Xposition Yposition Zposition Xrotation Yrotation Zrotation
									JOINT mixamorig:LeftHandPinky2
									{
										OFFSET 3.599953 0.000031 0.014727
										CHANNELS 6 Xposition Yposition Zposition Xrotation Yrotation Zrotation
										JOINT mixamorig:LeftHandPinky3
										{
											OFFSET 2.100021 0.000015 0.007705
											CHANNELS 6 Xposition Yposition Zposition Xrotation Yrotation Zrotation
											JOINT mixamorig:LeftHandPinky4
											{
												OFFSET 2.125504 0.000031 0.007517
												CHANNELS 6 Xposition Yposition Zposition Xrotation Yrotation Zrotation
												End Site
												{
													OFFSET 212.550781 0.000000 0.625752
												}
											}
										}
									}
								}
							}
						}
					}
				}
			}
		}
	}
	JOINT mixamorig:RightUpLeg
	{
		OFFSET -8.207787 -6.751648 -1.599560
		CHANNELS 6 Xposition Yposition Zposition Xrotation Yrotation Zrotation
		JOINT mixamorig:RightLeg
		{
			OFFSET -0.000002 -44.370117 0.345942
			CHANNELS 6 Xposition Yposition Zposition Xrotation Yrotation Zrotation
			JOINT mixamorig:RightFoot
			{
				OFFSET 0.000003 -44.423679 -3.043532
				CHANNELS 6 Xposition Yposition Zposition Xrotation Yrotation Zrotation
				JOINT mixamorig:RightToeBase
				{
					OFFSET -0.000002 -8.728671 10.710558
					CHANNELS 6 Xposition Yposition Zposition Xrotation Yrotation Zrotation
					JOINT mixamorig:RightToe_End
					{
						OFFSET -0.000001 -0.000679 9.278119
						CHANNELS 6 Xposition Yposition Zposition Xrotation Yrotation Zrotation
						End Site
						{
							OFFSET 0.000000 -0.067690 927.812134
						}
					}
				}
			}
		}
	}
	JOINT mixamorig:LeftUpLeg
	{
		OFFSET 8.207793 -6.751686 -1.599556
		CHANNELS 6 Xposition Yposition Zposition Xrotation Yrotation Zrotation
		JOINT mixamorig:LeftLeg
		{
			OFFSET -0.000004 -44.370014 0.346954
			CHANNELS 6 Xposition Yposition Zposition Xrotation Yrotation Zrotation
			JOINT mixamorig:LeftFoot
			{
				OFFSET -0.000001 -44.423672 -3.044401
				CHANNELS 6 Xposition Yposition Zposition Xrotation Yrotation Zrotation
				JOINT mixamorig:LeftToeBase
				{
					OFFSET -0.000002 -8.728669 10.710558
					CHANNELS 6 Xposition Yposition Zposition Xrotation Yrotation Zrotation
					JOINT mixamorig:LeftToe_End
					{
						OFFSET -0.000003 -0.000679 9.278133
						CHANNELS 6 Xposition Yposition Zposition Xrotation Yrotation Zrotation
						End Site
						{
							OFFSET 0.000000 -0.068021 927.813477
						}
					}
				}
			}
		}
	}
}
MOTION
Frames: 3
Frame Time: 0.033333
0.000006 104.270477 1.554256 0.000010 0.000003 -0.000113 -0.000005 10.181587 0.131522 0.000001 -0.000003 0.000084 -0.000000 9.893967 -1.470711 0.000001 0.000000 -0.000000 -0.000000 9.220802 -1.370642 0.000000 -0.000000 -0.000000 0.000001 16.740433 -2.049030 0.000000 -0.000000 -0.000000 0.000000 9.617859 1.685014 0.000000 0.000000 0.000000 0.000002 22.037384 7.501101 0.000000 -0.000000 0.000000 -4.569968 11.014880 -2.160881 0.000008 0.000001 -0.000038 -10.592876 -0.524776 -2.231906 74.808268 31.373460 -24.240239 -27.841526 0.000015 0.000553 -56.024360 107.665126 72.088890 -28.328835 0.000019 0.000027 -0.000320 -0.000046 0.000006 -2.464430 -1.573917 2.682378 -31.839743 -154.111498 23.544249 -3.215267 -1.872564 1.924629 151.950604 33.087813 16.444283 -2.654958 -1.527866 1.513070 150.483465 27.162807 -29.511024 -2.018827 -1.151989 1.108067 -0.000002 -0.000003 0.000002 -9.108389 -0.517557 2.260130 103.083004 16.903263 -21.251423 -3.700080 0.000317 0.001518 98.850036 14.284594 -16.621942 -2.850095 0.000370 -0.000241 98.983962 12.097219 -14.139535 -2.772154 -0.000001 -0.000018 0.000001 0.000000 -0.000001 -9.532594 0.000273 0.000242 95.220145 15.921709 -17.575665 -3.700058 0.000336 0.003984 95.040723 11.979204 -12.970096 -2.950056 0.000321 -0.001794 96.545277 11.706041 -13.106273 -2.946605 0.000003 -0.000155 0.000001 0.000001 0.000001 -9.103695 -0.042752 -1.864862 95.275019 17.441411 -19.047301 -3.379321 0.000329 -0.000805 93.696398 7.445421 -7.958387 -2.889737 0.000352 0.000629 97.981755 5.099061 -5.913700 -2.638804 -0.000028 0.000940 0.000000 0.000002 0.000001 -8.076747 -0.486402 -3.806019 90.870681 16.759835 -16.860438 -3.600023 0.000286 -0.003506 92.797921 6.162104 -6.108668 -2.100006 0.000330 -0.005466 94.720421 4.103724 -4.223318 -2.115766 -0.000054 -0.003678 -0.000002 0.000001 -0.000001 4.570446 11.014691 -2.160851 -0.000018 0.000010 -0.000021 10.592401 -0.524479 -2.232357 71.638070 -12.968798 9.379217 27.841814 0.000073 -0.000191 96.546466 -71.838120 78.171925 28.328825 -0.000027 0.000021 0.000025 -0.000089 -0.000000 2.466208 -1.576123 2.681860 -2.771417 158.881128 -77.381925 3.217815 -1.871743 1.916383 162.603636 -28.620533 13.949791 2.656105 -1.528643 1.514473 143.831121 -26.437460 50.508149 2.020887 -1.154063 1.115147 0.000004 -0.000003 0.000001 9.109395 -0.517875 2.259750 83.424135 -22.934189 20.486398 3.700070 0.000094 -0.000431 76.679371 -24.700551 19.663718 2.850050 0.000151 0.000219 73.320168 -18.407539 13.752225 2.774898 -0.000030 -0.000026 -0.000000 -0.000003 -0.000004 9.533461 0.000170 -0.000085 79.110359 -21.431435 17.759182 3.700053 0.000140 -0.000362 83.083726 -19.942035 17.704899 2.950056 0.000140 -0.000187 81.392011 -21.380886 18.446121 2.952869 -0.000029 0.000063 -0.000001 -0.000001 0.000002 9.104597 -0.042881 -1.865227 77.626261 -19.870088 16.041673 3.150038 0.000165 -0.000078 84.092353 -14.504518 13.095817 2.950029 0.000159 -0.000071 85.484155 -14.761171 13.653983 2.644315 0.000013 0.000063 0.000001 -0.000001 0.000001 8.077840 -0.486753 -3.806404 69.654481 -18.496871 13.353717 3.599995 0.000154 0.014567 72.779019 -13.729204 10.522772 2.100039 0.000158 0.007560 74.901193 -12.974190 10.332512 2.125502 0.000000 0.007510 -0.000003 0.000002 -0.000003 -8.207786 -6.751667 -1.599560 -0.077001 -0.000003 0.000080 -0.000002 -44.370110 0.345938 0.153719 -0.000000 -0.000000 0.000000 -44.423679 -3.043532 -0.076700 0.000000 -0.000002 -0.000006 -8.728667 10.710559 -0.000009 -0.000000 -0.000000 -0.000001 -0.000679 9.278123 0.000000 -0.000000 -0.000000 8.207792 -6.751710 -1.599556 -0.074518 -0.000003 0.000081 -0.000002 -44.370014 0.346960 0.148822 0.000002 0.000000 -0.000001 -44.423664 -3.044403 -0.074314 0.000000 -0.000002 -0.000004 -8.728671 10.710558 0.000007 -0.000000 -0.000000 0.000000 -0.000680 9.278137 -0.000000 0.000000 -0.000001 
0.000006 104.270477 1.554256 0.000010 0.000003 -0.000113 -0.000005 10.181587 0.131522 0.000001 -0.000003 0.000084 -0.000000 9.893967 -1.470711 0.000001 0.000000 -0.000000 -0.000000 9.220802 -1.370642 0.000000 -0.000000 -0.000000 0.000001 16.740433 -2.049030 0.000000 -0.000000 -0.000000 0.000000 9.617859 1.685014 0.000000 0.000000 0.000000 0.000002 22.037384 7.501101 0.000000 -0.000000 0.000000 -4.569968 11.014880 -2.160881 0.000008 0.000001 -0.000038 -10.592870 -0.524786 -2.231869 75.220457 36.622146 -28.605396 -27.841522 -0.000007 0.000541 -53.144442 104.696664 65.907084 -28.328819 0.000019 0.000022 -0.000320 -0.000042 0.000006 -2.464400 -1.573873 2.682353 -37.525852 -152.149526 11.058686 -3.215247 -1.872485 1.924610 145.345920 33.204910 32.605711 -2.654947 -1.527848 1.513044 147.308493 28.320310 -21.821575 -2.018833 -1.151987 1.108055 0.000000 0.000002 0.000002 -9.108390 -0.517546 2.260158 106.106620 16.804521 -22.284259 -3.700065 0.000287 0.001539 99.615058 14.579720 -17.192127 -2.850091 0.000354 -0.000245 97.994623 12.235318 -14.055505 -2.772170 -0.000000 -0.000017 -0.000000 -0.000004 -0.000001 -9.532598 0.000274 0.000262 96.863967 16.451349 -18.676645 -3.700069 0.000322 0.003970 94.448921 12.932264 -13.864491 -2.950063 0.000321 -0.001778 97.233467 12.847016 -14.554978 -2.946625 0.000014 -0.000160 -0.000001 0.000001 0.000000 -9.103702 -0.042758 -1.864851 95.762203 19.329393 -21.283148 -3.379344 0.000326 -0.000805 94.216954 9.037890 -9.744137 -2.889752 0.000351 0.000663 102.083072 6.565326 -8.170898 -2.638800 0.000001 0.000941 0.000004 -0.000002 -0.000000 -8.076754 -0.486386 -3.805995 91.225318 19.822391 -20.084880 -3.600026 0.000288 -0.003501 92.454670 8.262657 -8.253642 -2.099993 0.000322 -0.005456 96.490909 4.550628 -4.855213 -2.115779 -0.000044 -0.003680 -0.000001 -0.000003 -0.000002 4.570446 11.014691 -2.160851 -0.000018 0.000010 -0.000021 10.592392 -0.524485 -2.232346 72.207660 -10.775995 7.870039 27.841822 0.000051 -0.000215 97.210811 -74.126937 81.184954 28.328825 -0.000028 0.000022 0.000022 -0.000089 -0.000000 2.466282 -1.576016 2.681821 10.678840 171.190591 -107.509022 3.217848 -1.871774 1.916391 168.498513 -25.470216 24.848846 2.656121 -1.528692 1.514480 145.209712 -25.201132 59.198657 2.020899 -1.154069 1.115137 0.000001 0.000004 0.000002 9.109390 -0.517888 2.259756 82.695593 -24.502986 21.624758 3.700066 0.000146 -0.000473 79.552784 -16.002194 13.362585 2.850040 0.000181 0.000193 78.504432 -12.349335 10.102539 2.774871 -0.000030 -0.000026 -0.000000 0.000003 0.000000 9.533478 0.000172 -0.000066 81.105648 -23.059629 19.794645 3.700050 0.000157 -0.000377 83.185933 -12.717728 11.295957 2.950069 0.000162 -0.000187 83.019713 -12.272528 10.873174 2.952848 -0.000015 0.000066 0.000000 0.000002 0.000001 9.104608 -0.042882 -1.865218 80.978812 -22.557999 19.328259 3.150050 0.000166 -0.000102 85.030931 -13.087206 12.008705 2.950010 0.000173 -0.000105 85.067172 -10.262083 9.420104 2.644325 0.000030 0.000061 0.000001 -0.000003 0.000000 8.077851 -0.486748 -3.806384 73.827610 -22.634938 17.575931 3.600005 0.000159 0.014561 73.346799 -16.984175 13.089384 2.100033 0.000171 0.007544 75.859585 -12.199791 9.901429 2.125498 -0.000013 0.007517 0.000000 0.000001 -0.000001 -8.207786 -6.751667 -1.599560 -0.077001 -0.000003 0.000080 -0.000002 -44.370110 0.345938 0.153719 -0.000000 -0.000000 0.000000 -44.423679 -3.043532 -0.076700 0.000000 -0.000002 -0.000006 -8.728667 10.710559 -0.000009 -0.000000 -0.000000 -0.000001 -0.000679 9.278123 0.000000 -0.000000 -0.000000 8.207792 -6.751710 -1.599556 -0.074518 -0.000003 0.000081 -0.000002 -44.370014 0.346960 0.148822 0.000002 0.000000 -0.000001 -44.423664 -3.044403 -0.074314 0.000000 -0.000002 -0.000004 -8.728671 10.710558 0.000007 -0.000000 -0.000000 0.000000 -0.000680 9.278137 -0.000000 0.000000 -0.000001 
0.000006 104.270477 1.554256 0.000010 0.000003 -0.000113 -0.000005 10.181587 0.131522 0.000001 -0.000003 0.000084 -0.000000 9.893967 -1.470711 0.000001 0.000000 -0.000000 -0.000000 9.220802 -1.370642 0.000000 -0.000000 -0.000000 0.000001 16.740433 -2.049030 0.000000 -0.000000 -0.000000 0.000000 9.617859 1.685014 0.000000 0.000000 0.000000 0.000002 22.037384 7.501101 0.000000 -0.000000 0.000000 -4.569968 11.014880 -2.160881 0.000008 0.000001 -0.000038 -10.592842 -0.524815 -2.231818 74.907730 47.095182 -36.922599 -27.841526 -0.000006 0.000547 -51.197763 102.603395 61.762607 -28.328842 0.000008 0.000023 -0.000319 -0.000046 0.000010 -2.464437 -1.573976 2.682365 -23.433203 -146.622182 34.542271 -3.215236 -1.872498 1.924613 147.131810 33.285667 27.873070 -2.654956 -1.527848 1.513046 145.828500 28.403304 -22.159063 -2.018834 -1.151994 1.108069 -0.000006 -0.000001 0.000002 -9.108387 -0.517556 2.260162 105.058630 15.578116 -20.296619 -3.700060 0.000316 0.001532 101.557543 12.917979 -15.765016 -2.850080 0.000367 -0.000234 100.223225 10.611432 -12.679661 -2.772163 -0.000015 -0.000016 0.000000 -0.000000 -0.000000 -9.532597 0.000253 0.000260 96.830110 15.481571 -17.577125 -3.700068 0.000333 0.003976 96.166837 12.407073 -13.701293 -2.950082 0.000334 -0.001805 97.709210 12.138217 -13.867862 -2.946615 0.000000 -0.000156 -0.000000 0.000001 -0.000001 -9.103695 -0.042772 -1.864840 96.435284 17.787717 -19.816733 -3.379337 0.000321 -0.000794 96.499091 10.155342 -11.389860 -2.889760 0.000359 0.000675 103.111493 7.519123 -9.521624 -2.638818 -0.000028 0.000942 -0.000000 0.000002 0.000000 -8.076755 -0.486400 -3.805998 90.652743 18.520463 -18.574795 -3.600048 0.000264 -0.003493 92.837946 8.721818 -8.788897 -2.100020 0.000328 -0.005475 96.949160 5.265133 -5.698346 -2.115766 -0.000047 -0.003675 -0.000002 0.000003 -0.000001 4.570446 11.014691 -2.160851 -0.000018 0.000010 -0.000021 10.592434 -0.524470 -2.232385 71.826317 -25.698923 18.761024 27.841820 0.000049 -0.000178 97.524043 -76.874141 84.313050 28.328838 -0.000031 0.000022 0.000020 -0.000088 -0.000000 2.466249 -1.575946 2.681807 20.313894 179.736223 -125.890167 3.217884 -1.871876 1.916441 168.973115 -18.334371 47.459815 2.656084 -1.528670 1.514494 144.558058 -25.247647 61.539902 2.020891 -1.154070 1.115139 0.000003 0.000002 0.000003 9.109383 -0.517889 2.259749 83.294369 -24.867850 22.175754 3.700050 0.000128 -0.000454 78.252002 -17.115735 13.972021 2.850058 0.000176 0.000206 77.448874 -13.386650 10.750482 2.774887 -0.000030 -0.000025 0.000001 -0.000001 0.000000 9.533464 0.000164 -0.000075 77.574727 -24.721318 19.968867 3.700038 0.000144 -0.000379 81.363420 -15.839654 13.635671 2.950064 0.000141 -0.000203 81.764611 -13.597629 11.787707 2.952873 -0.000031 0.000060 -0.000000 0.000000 0.000000 9.104575 -0.042894 -1.865207 78.272185 -23.397691 19.130388 3.150045 0.000174 -0.000091 82.604964 -16.430087 14.459657 2.950012 0.000147 -0.000088 82.510290 -11.584131 10.170375 2.644317 0.000029 0.000057 -0.000002 0.000000 0.000000 8.077840 -0.486747 -3.806390 74.166709 -23.091225 18.035258 3.600012 0.000131 0.014584 71.644518 -18.728391 13.973117 2.100036 0.000156 0.007549 73.557483 -13.318351 10.345809 2.125489 -0.000015 0.007510 -0.000000 -0.000002 0.000000 -8.207786 -6.751667 -1.599560 -0.077001 -0.000003 0.000080 -0.000002 -44.370110 0.345938 0.153719 -0.000000 -0.000000 0.000000 -44.423679 -3.043532 -0.076700 0.000000 -0.000002 -0.000006 -8.728667 10.710559 -0.000009 -0.000000 -0.000000 -0.000001 -0.000679 9.278123 0.000000 -0.000000 -0.000000 8.207792 -6.751710 -1.599556 -0.074518 -0.000003 0.000081 -0.000002 -44.370014 0.346960 0.148822 0.000002 0.000000 -0.000001 -44.423664 -3.044403 -0.074314 0.000000 -0.000002 -0.000004 -8.728671 10.710558 0.000007 -0.000000 -0.000000 0.000000 -0.000680 9.278137 -0.000000 0.000000 -0.000001 
